<svg xmlns="http://www.w3.org/2000/svg" viewBox="0 0 28 20" width="28" height="20" role="img" aria-label="English (US)">
  <defs>
    <clipPath id="r"><rect width="28" height="20" rx="2"/></clipPath>
  </defs>
  <g clip-path="url(#r)">
    <rect width="28" height="20" fill="#fff"/>
    <g fill="#b22234">
      <rect width="28" height="1.54" y="0"/>
      <rect width="28" height="1.54" y="3.08"/>
      <rect width="28" height="1.54" y="6.16"/>
      <rect width="28" height="1.54" y="9.24"/>
      <rect width="28" height="1.54" y="12.32"/>
      <rect width="28" height="1.54" y="15.40"/>
      <rect width="28" height="1.54" y="18.48"/>
    </g>
    <rect width="12" height="10.78" fill="#3c3b6e"/>
    <g fill="#fff">
      <circle cx="2" cy="1.8" r="0.5"/><circle cx="4" cy="1.8" r="0.5"/><circle cx="6" cy="1.8" r="0.5"/><circle cx="8" cy="1.8" r="0.5"/><circle cx="10" cy="1.8" r="0.5"/>
      <circle cx="3" cy="3.6" r="0.5"/><circle cx="5" cy="3.6" r="0.5"/><circle cx="7" cy="3.6" r="0.5"/><circle cx="9" cy="3.6" r="0.5"/>
      <circle cx="2" cy="5.4" r="0.5"/><circle cx="4" cy="5.4" r="0.5"/><circle cx="6" cy="5.4" r="0.5"/><circle cx="8" cy="5.4" r="0.5"/><circle cx="10" cy="5.4" r="0.5"/>
      <circle cx="3" cy="7.2" r="0.5"/><circle cx="5" cy="7.2" r="0.5"/><circle cx="7" cy="7.2" r="0.5"/><circle cx="9" cy="7.2" r="0.5"/>
      <circle cx="2" cy="9.0" r="0.5"/><circle cx="4" cy="9.0" r="0.5"/><circle cx="6" cy="9.0" r="0.5"/><circle cx="8" cy="9.0" r="0.5"/><circle cx="10" cy="9.0" r="0.5"/>
    </g>
  </g>
</svg>
